<svg xmlns="http://www.w3.org/2000/svg" xmlns:xlink="http://www.w3.org/1999/xlink" width="1365.948" height="1943.559" viewBox="0 0 1365.948 1943.559">
  <defs>
    <clipPath id="clip-path">
      <path id="Tracé_821" data-name="Tracé 821" d="M0,605.591H1365.948V-1337.967H0Z" transform="translate(0 1337.967)" fill="#d6d6d6"/>
    </clipPath>
    <clipPath id="clip-path-2">
      <rect id="Rectangle_735" data-name="Rectangle 735" width="1420.08" height="1963.9" fill="#d6d6d6"/>
    </clipPath>
  </defs>
  <g id="Groupe_3965" data-name="Groupe 3965" transform="translate(0 0)" clip-path="url(#clip-path)">
    <g id="Groupe_3964" data-name="Groupe 3964" transform="translate(-27.067 -18.888)" opacity="0.19" style="mix-blend-mode: multiply;isolation: isolate">
      <g id="Groupe_3963" data-name="Groupe 3963">
        <g id="Groupe_3962" data-name="Groupe 3962" clip-path="url(#clip-path-2)">
          <g id="Groupe_3947" data-name="Groupe 3947" transform="translate(27.066 18.889)">
            <path id="Tracé_806" data-name="Tracé 806" d="M480.758,424.668c16.882,31.943,42.8,73.782,73.3,120.061V446.283C418.338,238.951,424.574,192.555,438.351,109.6,453.5,18.4,377.767-20.288,326.27-119.25S205.1-340.88,102.113-384.18s-245.366-17.5-369.562-.918S-436.286-600.008-436.286-600.008s-10.814-41.758,20.408-97.972c38.47-69.262,166.6-240.264,166.6-240.264h-45.438c-45.107,58.305-164.546,209.649-173.817,287.837-6.59,55.567,46.461,187.869,52.651,241.086,6.206,42.924-39.38,176.226-75.731,290.071C-526.44-10.162-789.929,132.5-811.885,144.234V290.52c17.221-11.359,155.324-102.259,209.825-138.9,57.555-38.692,118.3-15.626,127.068,47.505,8.814,63.437-66.753,107.016-119.606,137.1C-627.345,354.868-793.633,459.4-811.885,468.549V695.191c11.46-5.648,90.28-45.8,202.14-135.1C-488.578,463.36-385.587,391.5-279.564,430.2s209.011,46.984,335.648,30.4S256.6,499.288,326.27,584.963c40.436,49.725,146.174,183.321,227.792,286.688V692.078c-91.581-132.627-185.608-268.36-233.85-319.921C214.191,258.846,20.324,314.119-137.294,305.829S-468.073,98.041-476.462,70.914c-12.833-41.509,69.672-395.212,77.55-422.848s32.154.327,58.763,46.982c32.039,64.276,55.318,132.139,63.613,167.872,4.065,17.516-40.858,12.26-70.434,3.634-33.362-9.727,18.748,121.875,73.463,204.359,65.288,98.415,360.472,88.438,411.967,82.975s51.5,8.226,72.46,0,42.647-35.993,79-16.646S353.533,79.2,374.737,73.677s15.146,60.8,3.03,99.493,21.2,96.73,102.992,251.5M-249.854-286.406c4.444-29.747,21.878-64.833,94.051-78.767q19.407-3.746,37.852-6.069c-18.779,14.868-31.73,34.093-35.932,56.289-11.551,61,47.125,121.183,131.058,134.412,83,13.084,159.58-24.66,172.441-84.5-5.647,10.6-17.526,17.921-31.311,17.921-19.238,0-34.836-14.228-34.836-31.782s15.6-31.782,34.836-31.782c15.275,0,28.224,8.986,32.921,21.471-1.193-14.68-6.26-28.968-14.52-42.209,1.145.623,2.3,1.236,3.429,1.865C206.1-292.7,202.063-219,202.063-201.417S197.994-61.3-12-72.833C-212.708-83.854-259.473-222-249.854-286.406M276.99-51.667a14.1,14.1,0,0,1-1.081,3.91,14.416,14.416,0,0,1-2.382,3.521,19.371,19.371,0,0,1-6.611,4.628,50.571,50.571,0,0,1-13.737,3.5c-4.476.582-8.884.882-13.234,1.015-17.4.5-34.3-.638-51.149-1.1-8.418-.27-16.805-.469-25.158-.49-8.327-.012-16.719-.061-24.882.5-16.412.828-32.918,3.213-49.8,5.331C55.2-26.5,19.889-25.288-14.339-29.42-48.618-33.436-82.077-40.9-114.644-50.294l-6.123-1.732c-2.044-.588-4.12-1.344-6.178-2.009-4.1-1.426-8.3-2.6-12.269-4.335-3.985-1.681-8.091-3.116-11.965-5s-7.817-3.645-11.605-5.661a203.626,203.626,0,0,1-41.7-28.922,219.352,219.352,0,0,1-32.867-36.779,259.446,259.446,0,0,1-23.948-41.7,287.349,287.349,0,0,1-15.742-44.5,245.784,245.784,0,0,1-7.786-45.943,222.443,222.443,0,0,0,5.323,22.619c2.087,7.459,4.383,14.857,7.039,22.144a308.319,308.319,0,0,0,18.846,42.52c14.67,27.35,34,52.575,58.325,72.725a211.132,211.132,0,0,0,39.9,25.844c3.566,1.8,7.287,3.335,10.914,5.019s7.5,2.914,11.231,4.4c3.71,1.538,7.663,2.53,11.5,3.777,1.947.581,3.821,1.226,5.824,1.758l6.047,1.564c32.107,8.737,64.7,15.916,97.635,19.472,32.946,4.2,65.891,3.2,99.18-.6,16.691-1.714,33.735-3.816,51.157-4.317,17.391-.632,34.475.356,51.45,1.506,16.942,1.142,33.814,2.687,50.279,3.045,4.112.084,8.171,0,12.1-.308A40.926,40.926,0,0,0,262.7-47.787a10.066,10.066,0,0,0,3.565-2.121,4.945,4.945,0,0,0,1.611-2.969,7.487,7.487,0,0,0,.164-2.009c.021-.728-.108-1.875-.153-2.792l-.355-5.819c-.742-15.5-1.282-30.948-1.479-46.424-.064-15.459-.511-30.974,1.1-46.4-.135,7.721.785,15.415,1.439,23.107q1.017,11.542,2.237,23.066c1.621,15.363,3.178,30.74,5.147,46.026l.731,5.719c.111,1.01.267,1.778.347,2.981a15.165,15.165,0,0,1-.067,3.759" transform="translate(811.885 938.243)" fill="#d6d6d6"/>
          </g>
          <g id="Groupe_3948" data-name="Groupe 3948" transform="translate(1096.332 18.889)">
            <path id="Tracé_807" data-name="Tracé 807" d="M110.341,0H84.617S-36.552,155.169-72.9,207.681s-57.755,103.846-76.963,165.795c-17.624,56.851-13.912,77.412-4.824,102.285s13.82,58.038-3.691,74.621-32.658,24.872-26.6,52.509,63.613,116.076,81.787,96.73,0-91.2,3.031-110.549,12.312-58.522,72.7-132.659C7.7,413.24,52.626,355.265,110.341,275.992Z" transform="translate(186.34)" fill="#d6d6d6"/>
          </g>
          <g id="Groupe_3949" data-name="Groupe 3949" transform="translate(903.573 18.889)">
            <path id="Tracé_808" data-name="Tracé 808" d="M9.106,147.381c21.2,19.345,42.354-3,45.437-19.346,4.175-22.123,15.146-66.328,75.731-175.484S351.4-325.616,351.4-325.616H218.119C212.061-312.2,51.515-109.643,9.106-35.024s-21.2,163.058,0,182.4" transform="translate(15.378 325.616)" fill="#d6d6d6"/>
          </g>
          <g id="Groupe_3950" data-name="Groupe 3950" transform="translate(685.739 18.889)">
            <path id="Tracé_809" data-name="Tracé 809" d="M7.88,93.99c20.357,33.983,51.5,93.966,84.815,113.041s30.292-24.6,24.236-66.183,9.085-91.078,42.407-149.117S328.974-207.657,328.974-207.657h-172.2S16.967-38.669-4.336,1.992s.5,72.445,12.217,92" transform="translate(13.308 207.657)" fill="#d6d6d6"/>
          </g>
          <g id="Groupe_3951" data-name="Groupe 3951" transform="translate(461.048 18.889)">
            <path id="Tracé_810" data-name="Tracé 810" d="M1.274,93.99C-14.846,167.125,29.5,193.082,59.8,184.171s15.59-20.742,16.624-51.628c2.022-60.394,24.127-77.865,66.725-143.576,45.644-70.406,163.576-196.625,163.576-196.625H213.489s-19.1,23.057-61.857,75.022C117.479-91.126,20.7,5.856,1.274,93.99" transform="translate(2.152 207.657)" fill="#d6d6d6"/>
          </g>
          <g id="Groupe_3952" data-name="Groupe 3952" transform="translate(27.066 1574.986)">
            <path id="Tracé_811" data-name="Tracé 811" d="M22.56,120.729H193.445S278.262,34.786,381.254-50.888,549.75-111.242,666-103.357c121.279,8.225,202.369,13.732,248.393,27.6,75.774,22.822,205.986,105.02,224.16,118.839s60.581,33.165,66.64,0S1059.79-133.8,987.089-186.31s-237.355-59.762-339.268-71.857c-88.4-10.491-209.013-16.582-299.889,13.819C278.7-221.186,61.443-21.41-38.1,72.42v48.308Z" transform="translate(38.098 266.733)" fill="#d6d6d6"/>
          </g>
          <g id="Groupe_3953" data-name="Groupe 3953" transform="translate(1200.964 783.927)">
            <path id="Tracé_812" data-name="Tracé 812" d="M47.269,46.886C10.392-11.2-72.3-120.359-79.5-101.405a5.759,5.759,0,0,0,.677,5.09C-64.885-74.113,62.729,129.4,71.352,179.224c4.206,24.305,12.955,68.744,26.549,117.418,2.111,7.557,14.323,6.155,14.323-1.644V173.364c0-.8-.148-28.288-.455-29.034-3.549-8.656-27.592-39.311-64.5-97.445" transform="translate(79.826 103.587)" fill="#d6d6d6"/>
          </g>
          <g id="Groupe_3954" data-name="Groupe 3954" transform="translate(1307.719 432.936)">
            <path id="Tracé_813" data-name="Tracé 813" d="M.878,63.559c-13.309,102,31.8,201,81.911,290.162V-140.425C42.305-69.569,8.893,2.144.878,63.559" transform="translate(1.482 140.425)" fill="#d6d6d6"/>
          </g>
          <g id="Groupe_3955" data-name="Groupe 3955" transform="translate(554.122 690.257)">
            <path id="Tracé_814" data-name="Tracé 814" d="M8.75,28.181A259.508,259.508,0,0,0,32.7,69.881a219.227,219.227,0,0,0,32.868,36.777,203.523,203.523,0,0,0,41.7,28.923c3.788,2.015,7.736,3.768,11.605,5.661s7.98,3.321,11.967,5c3.968,1.734,8.168,2.908,12.269,4.336,2.057.665,4.132,1.419,6.178,2.009l6.122,1.732c32.567,9.4,66.026,16.856,100.305,20.874,34.228,4.131,69.534,2.918,103.3-1.428,16.882-2.118,33.387-4.5,49.8-5.331,8.161-.556,16.554-.507,24.881-.5,8.354.02,16.74.218,25.158.49,16.853.458,33.749,1.6,51.149,1.1,4.351-.134,8.758-.433,13.234-1.015A50.548,50.548,0,0,0,536.971,165a19.34,19.34,0,0,0,6.609-4.627,14.37,14.37,0,0,0,2.382-3.521,14.061,14.061,0,0,0,1.081-3.91,15.166,15.166,0,0,0,.067-3.759c-.08-1.2-.236-1.973-.347-2.981l-.731-5.719c-1.969-15.286-3.527-30.663-5.146-46.026q-1.2-11.524-2.239-23.066c-.654-7.692-1.575-15.388-1.439-23.107-1.61,15.43-1.161,30.945-1.1,46.4.2,15.475.736,30.926,1.477,46.424l.355,5.819c.045.917.174,2.064.154,2.792a7.555,7.555,0,0,1-.166,2.009,4.946,4.946,0,0,1-1.611,2.969,10.087,10.087,0,0,1-3.565,2.121A40.927,40.927,0,0,1,521.97,158.9c-3.929.312-7.988.394-12.1.309-16.464-.357-33.335-1.9-50.279-3.046-16.976-1.149-34.059-2.137-51.449-1.506-17.425.5-34.468,2.6-51.159,4.319-33.287,3.8-66.233,4.8-99.18.6-32.937-3.556-65.527-10.736-97.634-19.472l-6.047-1.564c-2-.533-3.878-1.177-5.826-1.758-3.834-1.248-7.787-2.238-11.5-3.777-3.732-1.483-7.6-2.719-11.231-4.4s-7.348-3.222-10.913-5.019a211.094,211.094,0,0,1-39.9-25.844C50.434,77.6,31.1,52.37,16.43,25.02A308.411,308.411,0,0,1-2.416-17.5c-2.656-7.286-4.952-14.686-7.039-22.144a222.378,222.378,0,0,1-5.321-22.62A245.877,245.877,0,0,0-6.992-16.319,287.418,287.418,0,0,0,8.75,28.181" transform="translate(14.776 62.262)" fill="#d6d6d6"/>
          </g>
          <g id="Groupe_3956" data-name="Groupe 3956" transform="translate(554.122 690.257)">
            <path id="Tracé_815" data-name="Tracé 815" d="M8.75,28.181A259.508,259.508,0,0,0,32.7,69.881a219.227,219.227,0,0,0,32.868,36.777,203.523,203.523,0,0,0,41.7,28.923c3.788,2.015,7.736,3.768,11.605,5.661s7.98,3.321,11.967,5c3.968,1.734,8.168,2.908,12.269,4.336,2.057.665,4.132,1.419,6.178,2.009l6.122,1.732c32.567,9.4,66.026,16.856,100.305,20.874,34.228,4.131,69.534,2.918,103.3-1.428,16.882-2.118,33.387-4.5,49.8-5.331,8.161-.556,16.554-.507,24.881-.5,8.354.02,16.74.218,25.158.49,16.853.458,33.749,1.6,51.149,1.1,4.351-.134,8.758-.433,13.234-1.015A50.548,50.548,0,0,0,536.971,165a19.34,19.34,0,0,0,6.609-4.627,14.37,14.37,0,0,0,2.382-3.521,14.061,14.061,0,0,0,1.081-3.91,15.166,15.166,0,0,0,.067-3.759c-.08-1.2-.236-1.973-.347-2.981l-.731-5.719c-1.969-15.286-3.527-30.663-5.146-46.026q-1.2-11.524-2.239-23.066c-.654-7.692-1.575-15.388-1.439-23.107-1.61,15.43-1.161,30.945-1.1,46.4.2,15.475.736,30.926,1.477,46.424l.355,5.819c.045.917.174,2.064.154,2.792a7.555,7.555,0,0,1-.166,2.009,4.946,4.946,0,0,1-1.611,2.969,10.087,10.087,0,0,1-3.565,2.121A40.927,40.927,0,0,1,521.97,158.9c-3.929.312-7.988.394-12.1.309-16.464-.357-33.335-1.9-50.279-3.046-16.976-1.149-34.059-2.137-51.449-1.506-17.425.5-34.468,2.6-51.159,4.319-33.287,3.8-66.233,4.8-99.18.6-32.937-3.556-65.527-10.736-97.634-19.472l-6.047-1.564c-2-.533-3.878-1.177-5.826-1.758-3.834-1.248-7.787-2.238-11.5-3.777-3.732-1.483-7.6-2.719-11.231-4.4s-7.348-3.222-10.913-5.019a211.094,211.094,0,0,1-39.9-25.844C50.434,77.6,31.1,52.37,16.43,25.02A308.411,308.411,0,0,1-2.416-17.5c-2.656-7.286-4.952-14.686-7.039-22.144a222.378,222.378,0,0,1-5.321-22.62A245.877,245.877,0,0,0-6.992-16.319,287.418,287.418,0,0,0,8.75,28.181" transform="translate(14.776 62.262)" fill="#d6d6d6"/>
          </g>
          <g id="Groupe_3957" data-name="Groupe 3957" transform="translate(988.567 667.923)">
            <path id="Tracé_816" data-name="Tracé 816" d="M.168,6.906C.04,7.584-.138,8.242-.283,8.915A29.355,29.355,0,0,0,3.24-4.946,29.192,29.192,0,0,0,1.328-15.258,82.63,82.63,0,0,1,.168,6.906" transform="translate(0.283 15.258)" fill="#d6d6d6"/>
          </g>
          <g id="Groupe_3958" data-name="Groupe 3958" transform="translate(922.419 646.454)">
            <path id="Tracé_817" data-name="Tracé 817" d="M12.956,0C-6.282,0-21.88,14.23-21.88,31.782s15.6,31.782,34.836,31.782c13.785,0,25.664-7.323,31.311-17.921.145-.673.323-1.331.451-2.009A82.63,82.63,0,0,0,45.879,21.47C41.182,8.986,28.233,0,12.956,0" transform="translate(21.88)" fill="#d6d6d6"/>
          </g>
          <g id="Groupe_3959" data-name="Groupe 3959" transform="translate(27.067 18.889)">
            <path id="Tracé_818" data-name="Tracé 818" d="M49.093,209.065c54-74.136,62.253-97.927,83.438-98.348s24.188,62.527-15.937,121.237c-27.3,39.951-125.8,150.1-199.5,230.194V573.835c20.021-19.1,234.67-225.915,263.624-341.882,30.375-121.658,3.375-199.9,0-240.84s-20.961-127.2,43.875-241.087C299.043-380.755,349.466-461.9,349.466-461.9H282.594s-52.348,74-98.5,156.5c-37.366,66.786-81,175.516-81,240.181S65.968,96.09,28.842,152.46C-5.22,204.184-72.108,273.931-82.906,285.085V364.3c11.145-11.7,82.346-87.074,132-155.24" transform="translate(82.906 461.898)" fill="#d6d6d6"/>
          </g>
          <g id="Groupe_3960" data-name="Groupe 3960" transform="translate(27.067 18.889)">
            <path id="Tracé_819" data-name="Tracé 819" d="M22.171,135.249C57.106,87.288,62.444,71.9,76.149,71.626s13.376,46.1-10.311,78.43C50.543,170.931,4.23,238.4-37.441,278.145V345.77C7.066,300.637,92.884,207.886,107.322,150.055c19.65-78.7,2.184-129.321,0-155.8s-13.137-67.06,28.385-155.966c35.671-76.377,80.786-137.1,80.786-137.1H175.719s-34.328,40.033-66.213,101.242C86.685-153.757,62.718-93.69,57.106-42.192,52.57-.565,33.088,62.163,9.07,98.63c-12.24,18.586-31.025,40.761-46.511,58.048v51.007c17.7-19.763,41-46.882,59.612-72.436" transform="translate(37.441 298.813)" fill="#d6d6d6"/>
          </g>
          <g id="Groupe_3961" data-name="Groupe 3961" transform="translate(921.407 646.042)">
            <path id="Tracé_820" data-name="Tracé 820" d="M26.152,10c0,17.715-15.742,32.077-35.159,32.077S-44.165,27.71-44.165,10s15.74-32.078,35.158-32.078S26.152-7.721,26.152,10" transform="translate(44.165 22.083)" fill="#d6d6d6"/>
          </g>
        </g>
      </g>
    </g>
  </g>
</svg>
